<svg xmlns="http://www.w3.org/2000/svg" width="60" height="60" viewBox="0 0 60 60">
  <g id="Group_14578" data-name="Group 14578" transform="translate(-426 -1703)">
    <g id="Component_9_5" data-name="Component 9 – 5" transform="translate(438 1715)">
      <path id="_87" d="M140.765,123.323a2.649,2.649,0,0,1-3.753,0L128.8,115.1v20.088a2.65,2.65,0,0,1-5.3,0V115.1l-8.215,8.226a2.653,2.653,0,0,1-3.753-3.753l12.742-12.742a2.649,2.649,0,0,1,3.753,0l12.742,12.742A2.649,2.649,0,0,1,140.765,123.323Z" transform="translate(-107.75 -104.05)" fill="#fff"/>
      <rect id="Rectangle_8698" data-name="Rectangle 8698" width="36" height="36" fill="none"/>
    </g>
    <g id="Group_14486" data-name="Group 14486">
      <rect id="Rectangle_24" data-name="Rectangle 24" width="60" height="60" rx="4" transform="translate(426 1703)" fill="#f2eeed" opacity="0.1"/>
    </g>
  </g>
</svg>
