<svg id="Component_8_11" data-name="Component 8 – 11" xmlns="http://www.w3.org/2000/svg" width="36" height="36" viewBox="0 0 36 36">
  <path id="Icon_11_" d="M32.241,24.536H29.072c-.512,0-.672-.192-.672-.672V19.991c0-.512.192-.672.672-.672h3.169V16.5a7.11,7.11,0,0,1,.864-3.617,5.311,5.311,0,0,1,2.849-2.369,7.122,7.122,0,0,1,2.465-.416h3.137c.448,0,.64.192.64.64v3.649c0,.448-.192.64-.64.64-.864,0-1.729,0-2.593.032a1.156,1.156,0,0,0-1.312,1.312c-.032.96,0,1.889,0,2.881h3.713c.512,0,.7.192.7.7v3.873c0,.512-.16.672-.7.672H37.651V34.939c0,.544-.16.736-.736.736h-4c-.48,0-.672-.192-.672-.672V24.536Z" transform="translate(-17.027 -4.951)" fill="#707070"/>
  <rect id="Rectangle_8703" data-name="Rectangle 8703" width="36" height="36" rx="4" fill="none"/>
</svg>
