<svg xmlns="http://www.w3.org/2000/svg" width="36" height="36" viewBox="0 0 36 36">
  <g id="Group_14575" data-name="Group 14575" transform="translate(-266 -1693)">
    <rect id="Rectangle_8662" data-name="Rectangle 8662" width="36" height="36" rx="4" transform="translate(266 1693)" fill="#fff"/>
    <g id="Component_6_4" data-name="Component 6 – 4" transform="translate(266 1693)">
      <g id="Group_40" data-name="Group 40" transform="translate(7.334 7.148)">
        <g id="Group_39" data-name="Group 39" transform="translate(0)">
          <path id="Path_38" data-name="Path 38" d="M16.409,0H5.473A5.485,5.485,0,0,0,0,5.468V16.4a5.485,5.485,0,0,0,5.468,5.468H16.409A5.485,5.485,0,0,0,21.878,16.4V5.468A5.485,5.485,0,0,0,16.409,0Zm3.645,16.4a3.649,3.649,0,0,1-3.645,3.645H5.473A3.65,3.65,0,0,1,1.828,16.4V5.468A3.65,3.65,0,0,1,5.473,1.823H16.409a3.649,3.649,0,0,1,3.645,3.645Z" transform="translate(-0.005)" fill="#846e63"/>
        </g>
      </g>
      <g id="Group_42" data-name="Group 42" transform="translate(22.828 10.794)">
        <g id="Group_41" data-name="Group 41">
          <circle id="Ellipse_35" data-name="Ellipse 35" cx="1.367" cy="1.367" r="1.367" fill="#846e63"/>
        </g>
      </g>
      <g id="Group_44" data-name="Group 44" transform="translate(12.802 12.617)">
        <g id="Group_43" data-name="Group 43">
          <path id="Path_39" data-name="Path 39" d="M107.873,102.4a5.468,5.468,0,1,0,5.468,5.468A5.467,5.467,0,0,0,107.873,102.4Zm0,9.114a3.646,3.646,0,1,1,3.645-3.646A3.646,3.646,0,0,1,107.873,111.514Z" transform="translate(-102.405 -102.4)" fill="#846e63"/>
        </g>
      </g>
      <rect id="Rectangle_8701" data-name="Rectangle 8701" width="36" height="36" rx="4" fill="none"/>
    </g>
  </g>
</svg>
