<svg xmlns="http://www.w3.org/2000/svg" width="84" height="84" viewBox="0 0 84 84">
  <g id="Group_14562" data-name="Group 14562" transform="translate(-214 -1985)">
    <g id="Group_14465" data-name="Group 14465" transform="translate(226 1997)">
      <path id="Path_8131" data-name="Path 8131" d="M54.555,47.665V29.74h-9.9a15.184,15.184,0,0,0-13.38-13.857V12.327H44.1L41.3,6.163,44.1,0H27.816V15.883A15.184,15.184,0,0,0,14.437,29.74H4.54V47.665A6.942,6.942,0,0,0,0,54.17v4.925H59.095V54.17A6.942,6.942,0,0,0,54.555,47.665ZM31.279,3.463h7.443L37.5,6.163l1.227,2.7H31.279ZM3.463,54.17A3.471,3.471,0,0,1,6.93,50.7H52.165a3.471,3.471,0,0,1,3.467,3.467v1.462H3.463ZM29.547,19.246A11.712,11.712,0,0,1,41.182,29.74H17.913A11.712,11.712,0,0,1,29.547,19.246ZM51.092,47.24H44.706V33.2h6.386Zm-17.722,0H25.724V33.2h7.646Zm7.873,0h-4.41V33.2h4.41ZM22.262,33.2V47.24h-4.41V33.2ZM14.389,47.24H8V33.2h6.386Z" transform="translate(0)" fill="#846e63"/>
    </g>
    <rect id="Rectangle_8714" data-name="Rectangle 8714" width="84" height="84" transform="translate(214 1985)" fill="none"/>
  </g>
</svg>
