<svg xmlns="http://www.w3.org/2000/svg" width="84" height="84" viewBox="0 0 84 84">
  <g id="Group_14560" data-name="Group 14560" transform="translate(-445 -1985)">
    <g id="Group_14466" data-name="Group 14466" transform="translate(460 1998)">
      <path id="Path_8136" data-name="Path 8136" d="M58.188,12.035a1,1,0,0,0,1-1V6.012A3.015,3.015,0,0,0,56.18,3H22.05a3.015,3.015,0,0,0-3.012,3.012V47.169H11.008A2.01,2.01,0,0,0,9,49.177v9.035a3.015,3.015,0,0,0,3.012,3.012H52.165A7.035,7.035,0,0,0,59.192,54.2V15.046a1,1,0,1,0-2.008,0V54.2a5.019,5.019,0,0,1-10.038,0V48.173a1,1,0,0,0-1-1H44.134a1,1,0,0,0,0,2.008h1V54.2a7,7,0,0,0,2.118,5.019H12.012a1,1,0,0,1-1-1V49.177H40.119a1,1,0,0,0,0-2.008H21.046V6.012a1,1,0,0,1,1-1H56.18a1,1,0,0,1,1,1v5.019A1,1,0,0,0,58.188,12.035Z" transform="translate(-4.985 -3)" fill="#846e63"/>
      <path id="Path_8137" data-name="Path 8137" d="M9.015,21.069v15.65a3.051,3.051,0,0,0,.242,1.189l2.851,6.646a1,1,0,0,0,1.845,0L16.807,37.9a3.04,3.04,0,0,0,.239-1.181v-1.6a1,1,0,0,0-2.008,0v1H11.023V26.088h4.015v5.019a1,1,0,0,0,2.008,0V10.027a2,2,0,0,0-1-1.728V5.008A2.01,2.01,0,0,0,14.035,3H12.027a2.01,2.01,0,0,0-2.008,2.008V8.3a2,2,0,0,0-1,1.728h-1A3.015,3.015,0,0,0,5,13.038v9.035a1,1,0,1,0,2.008,0V13.038a1,1,0,0,1,1-1h1Zm6.023-1H11.023V10.027h4.015ZM13.031,41.611l-1.491-3.477h2.983Zm-2.008-17.53V22.073h4.015v2.008Zm1-19.073h2.008V8.019H12.027Z" transform="translate(-5 -3)" fill="#846e63"/>
      <path id="Path_8138" data-name="Path 8138" d="M42.027,11.008a1,1,0,1,0,0-2.008H36a1,1,0,1,0,0,2.008Z" transform="translate(-4.885 -2.977)" fill="#846e63"/>
      <path id="Path_8139" data-name="Path 8139" d="M27,15a1,1,0,0,0,1,1H50.088a1,1,0,0,0,0-2.008H28A1,1,0,0,0,27,15Z" transform="translate(-4.916 -2.958)" fill="#846e63"/>
      <path id="Path_8140" data-name="Path 8140" d="M31,21a1,1,0,0,0,1,1H52.081a1,1,0,1,0,0-2.008H32A1,1,0,0,0,31,21Z" transform="translate(-4.9 -2.935)" fill="#846e63"/>
      <path id="Path_8141" data-name="Path 8141" d="M53.111,25H25a1,1,0,0,0,0,2.008H53.111a1,1,0,0,0,0-2.008Z" transform="translate(-4.927 -2.916)" fill="#846e63"/>
      <path id="Path_8142" data-name="Path 8142" d="M53.111,30H25a1,1,0,0,0,0,2.008H53.111a1,1,0,0,0,0-2.008Z" transform="translate(-4.927 -2.896)" fill="#846e63"/>
      <path id="Path_8143" data-name="Path 8143" d="M43,43.008H53.042a1,1,0,1,0,0-2.008H43a1,1,0,0,0,0,2.008Z" transform="translate(-4.858 -2.854)" fill="#846e63"/>
      <path id="Path_8144" data-name="Path 8144" d="M43,38.008h6.023a1,1,0,1,0,0-2.008H43a1,1,0,1,0,0,2.008Z" transform="translate(-4.858 -2.873)" fill="#846e63"/>
    </g>
    <rect id="Rectangle_8716" data-name="Rectangle 8716" width="84" height="84" transform="translate(445 1985)" fill="none"/>
  </g>
</svg>
