<svg xmlns="http://www.w3.org/2000/svg" xmlns:xlink="http://www.w3.org/1999/xlink" width="84" height="84" viewBox="0 0 84 84">
  <defs>
    <linearGradient id="linear-gradient" x1="0.5" x2="0.5" y2="1" gradientUnits="objectBoundingBox">
      <stop offset="0" stop-color="#dcc9a7"/>
      <stop offset="1" stop-color="#ceb27f"/>
    </linearGradient>
  </defs>
  <g id="Group_14561" data-name="Group 14561" transform="translate(-334 -1985)">
    <g id="Layer_x0020_1" transform="translate(339 2004)">
      <g id="_611404264" transform="translate(0 0)">
        <path id="Path_8132" data-name="Path 8132" d="M17.367,105.438a.778.778,0,0,1,.73,1.022l-3.5,27.875c0,.438-.438.73-1.022.73C12.551,134.919.73,133.459.73,133.459A1.1,1.1,0,0,1,0,132.438c.292-2.335,3.5-27.875,3.5-27.875.146-.438.584-.876,1.022-.73Z" transform="translate(0 -102.627)" fill="url(#linear-gradient)"/>
        <path id="Path_8133" data-name="Path 8133" d="M71.589,145a.774.774,0,0,0-.876.876v.146L64,152.881v.146l4.086,12.405a1.247,1.247,0,0,0,0,1.022c2.627,3.211,6.422,5.984,10.508,8.9a85.1,85.1,0,0,1,9.632,8.027h.146a4.075,4.075,0,0,0,2.919,1.168,3.987,3.987,0,0,0,2.773-1.168,3.618,3.618,0,0,0,1.168-2.189l2.189,2.189a4.339,4.339,0,0,0,2.919,1.168,4.635,4.635,0,0,0,2.919-1.168,4.328,4.328,0,0,0,1.022-2.189l.146.146a4.159,4.159,0,0,0,7.005-2.189v.146a4.635,4.635,0,0,0,2.919,1.168,4.339,4.339,0,0,0,2.919-1.168,4.635,4.635,0,0,0,1.168-2.919,3.954,3.954,0,0,0-1.168-2.919l-3.065-3.065-.438.584a2.737,2.737,0,0,1-3.795.146c-.146-.146-.292-.292-.292-.438L97.859,159.011c-1.022-1.022-3.357-3.357-4.962-3.357-1.605.146-3.795,2.627-4.67,3.795a4.966,4.966,0,0,1-5.108,1.314,6.449,6.449,0,0,1-2.335-.876A5.851,5.851,0,0,1,78.74,157.7a6.05,6.05,0,0,1-.438-5.254V152.3l.438-.876a.143.143,0,0,0,.146-.146A20.958,20.958,0,0,1,84.432,145Z" transform="translate(-54.66 -137.811)" fill="url(#linear-gradient)"/>
        <path id="Path_8134" data-name="Path 8134" d="M355.362,100.01l12.113-4.232h.146a.83.83,0,0,1,1.022.584l9.049,26.562v.146a.83.83,0,0,1-.584,1.022l-12.259,4.086a.919.919,0,0,1-1.168-.438l-8.9-26.562v-.146A.83.83,0,0,1,355.362,100.01Z" transform="translate(-302.968 -95.74)" fill="url(#linear-gradient)"/>
        <path id="Path_8135" data-name="Path 8135" d="M207.048,157.294c0,.438-6.422-19.119-6.422-19.265h-.146c-10.654-3.649-22.038-7.589-28.751,5.108v.146c-1.022,1.9-.876,3.357-.146,4.524a4.638,4.638,0,0,0,1.459,1.459,5.531,5.531,0,0,0,1.9.876,3.371,3.371,0,0,0,3.357-.876c2.335-2.919,4.086-4.232,5.838-4.378,1.9,0,3.795,1.313,6.422,3.94l11.821,11.821.146.146a1.089,1.089,0,0,0,1.314,0Z" transform="translate(-146.044 -128.797)" fill="url(#linear-gradient)"/>
      </g>
    </g>
    <rect id="Rectangle_8715" data-name="Rectangle 8715" width="84" height="84" transform="translate(334 1985)" fill="none"/>
  </g>
</svg>
