<svg xmlns="http://www.w3.org/2000/svg" width="84" height="84" viewBox="0 0 84 84">
  <g id="Group_14557" data-name="Group 14557" transform="translate(-913 -1865)">
    <g id="Group_14463" data-name="Group 14463" transform="translate(914 1875)">
      <g id="Group_14412" data-name="Group 14412" transform="translate(0 0)">
        <path id="Path_8119" data-name="Path 8119" d="M75.143,55.839c-.327-2.46-.373-6.7,1.911-8.119a.857.857,0,0,0,.107-.1c1.868-.6,3.161-1.436,2.146-2.564l-27.554-8.3-44.616,6.2s-5.109.73-4.653,8.668c.248,4.32,1.6,6.442,2.788,7.486l-3.661,1.1c-1.016,1.128.276,1.967,2.144,2.563a.738.738,0,0,0,.107.1C6.146,64.3,6.1,68.538,5.774,71c-8.2,2.329-5.258,3.088-5.258,3.088l1.8.435C1.05,75.665-.207,77.834.028,81.947c.457,7.936,4.653,8.484,4.653,8.484l29.2,9.49L77.945,89.247s2.945-.76-5.259-3.09c-.33-2.456-.376-6.692,1.913-8.119a.674.674,0,0,0,.107-.1c1.868-.6,3.16-1.435,2.145-2.563L74.935,74.8c1.277-.77,3.2-2.784,3.5-8.013.207-3.6-.731-5.7-1.817-6.944l3.786-.916S83.346,58.169,75.143,55.839Zm-36.86-.1,7.411-1.523,25.044-5.146,3.731-.767c-1.192,2.182-1.142,5.168-.945,7.088.043.434.093.831.141,1.132L69.58,57.536,37.971,65.4ZM6.45,63.461l3.731.767,24.051,4.944,2.1.43h0l6.3,1.3.311,9.662L10.456,72.477l-3.2-.8c.047-.3.1-.7.142-1.133C7.592,68.63,7.643,65.643,6.45,63.461ZM5,51.247c-.045-2.111.331-3.638,1.091-4.414a1.982,1.982,0,0,1,1.447-.6,2.454,2.454,0,0,1,.366.029L27.128,52.53l9.591,3.127L36.4,65.386,9.5,57.842l-1.42-.4a.859.859,0,0,0-.177-.027C7.79,57.409,5.13,57.164,5,51.247ZM33.947,95.706,5.621,87.764a.843.843,0,0,0-.177-.028c-.113-.007-2.774-.252-2.9-6.168-.046-2.114.332-3.639,1.091-4.416a1.986,1.986,0,0,1,1.447-.6,2.558,2.558,0,0,1,.367.028h0l28.813,9.4Zm37.117-10c.045.436.094.831.143,1.133L35.513,95.72l.312-9.662,7.631-1.569,1.127.273,4.224-1.373,19.471-4,3.733-.768C70.817,80.8,70.866,83.789,71.064,85.707ZM73.03,72.576a.685.685,0,0,0-.191.029l-2.692.754L44.514,80.547,44.2,70.818l8.41-2.743,20.363-6.641a2.121,2.121,0,0,1,1.856.559c.759.776,1.136,2.3,1.092,4.414C75.788,72.323,73.127,72.569,73.03,72.576Z" transform="translate(0.001 -36.758)" fill="#846e63"/>
      </g>
    </g>
    <rect id="Rectangle_8713" data-name="Rectangle 8713" width="84" height="84" transform="translate(913 1865)" fill="none"/>
  </g>
</svg>
