<svg id="Group_14558" data-name="Group 14558" xmlns="http://www.w3.org/2000/svg" width="56.85" height="58.374" viewBox="0 0 56.85 58.374">
  <g id="solid" transform="translate(0 0)">
    <path id="Path_8112" data-name="Path 8112" d="M156.091,59.623V48.457a5.075,5.075,0,0,1,5.076-5.076h6.091a5.075,5.075,0,0,1,5.076,5.076V59.623h10.152V48.457a5.075,5.075,0,0,1,5.076-5.076h6.091a5.075,5.075,0,0,1,5.076,5.076V59.623h2.03a6.093,6.093,0,0,0,6.091-6.091V15.88a6.09,6.09,0,0,0-4.217-5.795l-26.395-8.54a6.09,6.09,0,0,0-7.965,5.795v6.355c-4.751,1.393-10.225,3.129-13.825,4.138A6.093,6.093,0,0,0,150,23.7V53.532a6.093,6.093,0,0,0,6.091,6.091Zm30.455,0h8.121V48.457a1.016,1.016,0,0,0-1.015-1.015h-6.091a1.016,1.016,0,0,0-1.015,1.015Zm-26.395,0h8.121V48.457a1.016,1.016,0,0,0-1.015-1.015h-6.091a1.016,1.016,0,0,0-1.015,1.015Zm24.364-20.3H196.7a2.03,2.03,0,1,0,0-4.061H184.516a2.03,2.03,0,0,0,0,4.061Zm-26.395,0H170.3a2.03,2.03,0,1,0,0-4.061H158.121a2.03,2.03,0,0,0,0,4.061ZM184.516,31.2H196.7a2.03,2.03,0,1,0,0-4.061H184.516a2.03,2.03,0,0,0,0,4.061Zm-26.395,0H170.3a2.03,2.03,0,1,0,0-4.061H158.121a2.03,2.03,0,0,0,0,4.061Zm26.395-8.121H196.7a2.03,2.03,0,1,0,0-4.061H184.516a2.03,2.03,0,0,0,0,4.061Z" transform="translate(-150 -1.249)" fill="#846e63" fill-rule="evenodd"/>
  </g>
</svg>
