<svg xmlns="http://www.w3.org/2000/svg" width="84" height="84" viewBox="0 0 84 84">
  <g id="Group_14559" data-name="Group 14559" transform="translate(-569 -1865)">
    <path id="Path_8163" data-name="Path 8163" d="M4.025,52.926a5.647,5.647,0,0,0,3.842,4.13l.576,2.531H8.4v6.4H59.584v-6.4h-42.6a2.687,2.687,0,0,0-.022-.889l-.627-2.761L49.464,48.4l.627,2.761a2.835,2.835,0,0,0,3.391,2.134l2.761-.63a2.832,2.832,0,0,0,2.134-3.391l-.8-3.529a5.638,5.638,0,0,0,1.68-5.384l-1.888-8.286a5.631,5.631,0,0,0-4.037-4.181L46.774,17.085a8.875,8.875,0,0,0-9.54-4.041L12.062,18.771A8.859,8.859,0,0,0,5.2,26.545L3.964,39.124A5.631,5.631,0,0,0,2.141,44.64Zm9.662-2.2a4.247,4.247,0,1,1,2.652-1.88A4.254,4.254,0,0,1,13.687,50.725Zm35.9-8.165a4.249,4.249,0,1,1,2.52-1.915,4.251,4.251,0,0,1-2.52,1.915ZM13.479,25.009l25.175-5.73A2.473,2.473,0,0,1,41.309,20.4l5.071,8.36-1.811.413-32.14,7.317-1.817.413.957-9.732a2.47,2.47,0,0,1,1.91-2.163Zm41-16.611L49.986,2l-1.6,9.6,8,12.8,9.6,3.2-6.4-8.123,6.4-2.985-6.4-2.985L65.982,2Z" transform="translate(576.999 1873)" fill="#846e63"/>
    <rect id="Rectangle_8710" data-name="Rectangle 8710" width="84" height="84" transform="translate(569 1865)" fill="none"/>
  </g>
</svg>
