<svg xmlns="http://www.w3.org/2000/svg" width="84" height="84" viewBox="0 0 84 84">
  <g id="Group_14553" data-name="Group 14553" transform="translate(-210 -1865)">
    <g id="Group_14460" data-name="Group 14460" transform="translate(219 1871)">
      <path id="Path_8106" data-name="Path 8106" d="M36.776,3.818H35.287A14.455,14.455,0,0,0,20.83,18.273v2.812a3.066,3.066,0,0,0,.613,6.071H23.9v8.408A12.4,12.4,0,0,0,26.925,43.7q-1.257.256-2.466.613a1.217,1.217,0,0,0-.591.18C12.812,48.006,4.886,57.738,4.886,69.163v3.374a1.227,1.227,0,0,0,1.226,1.226H69.89a1.226,1.226,0,0,0,1.226-1.226V69.163c0-11.444-7.954-21.191-19.041-24.689a1.219,1.219,0,0,0-.46-.14q-1.244-.37-2.538-.634a12.393,12.393,0,0,0,3.028-8.135V27.157h2.453a3.067,3.067,0,0,0,.613-6.071V18.273A14.455,14.455,0,0,0,40.717,3.818H39.228a1.226,1.226,0,0,0-2.452,0ZM17.185,64.851,17.1,50.62A22.95,22.95,0,0,0,7.339,69.163V71.31h6.21a9.8,9.8,0,0,1,3.637-6.46Zm42.79,6.46H16.027a7.36,7.36,0,0,1,7.256-6.132H52.719a7.357,7.357,0,0,1,7.256,6.132Zm-1.123-6.433a9.8,9.8,0,0,1,3.6,6.433h6.21V69.163a22.956,22.956,0,0,0-9.812-18.584Zm-6.132-2.152a9.8,9.8,0,0,1,3.679.716V49.008a26.485,26.485,0,0,0-3.679-1.716Zm-29.436,0V47.292a26.416,26.416,0,0,0-3.744,1.753l.09,14.386A9.829,9.829,0,0,1,23.283,62.725Zm26.983,0V46.5q-.616-.166-1.245-.305a11.039,11.039,0,0,1-22.04,0q-.627.14-1.245.305V62.725ZM29.423,45.909a8.585,8.585,0,0,0,17.156,0,12.385,12.385,0,0,1-6.916,2.1H36.339A12.385,12.385,0,0,1,29.423,45.909ZM26.35,27.157h23.3v8.408a9.99,9.99,0,0,1-9.99,9.99H36.339a9.99,9.99,0,0,1-9.99-9.99Zm-4.906-3.679H54.559a.613.613,0,0,1,0,1.226H21.444a.613.613,0,0,1,0-1.226ZM39.228,6.271V7.533a1.226,1.226,0,1,1-2.453,0V6.271H35.287a12,12,0,0,0-5.221,1.195l2.083,9.619a1.227,1.227,0,0,1-2.4.519l-1.9-8.756a12.017,12.017,0,0,0-4.571,9.426v2.751H52.719V18.273A12,12,0,0,0,49.2,9.786a12.193,12.193,0,0,0-1.318-1.139L45.946,17.6a1.227,1.227,0,1,1-2.4-.519l2.111-9.749a12,12,0,0,0-4.943-1.065Z" transform="translate(-4.886 -2.627)" fill="#846e63" fill-rule="evenodd"/>
    </g>
    <rect id="Rectangle_8707" data-name="Rectangle 8707" width="84" height="84" transform="translate(210 1865)" fill="none"/>
  </g>
</svg>
