<svg id="Component_13_3" data-name="Component 13 – 3" xmlns="http://www.w3.org/2000/svg" width="24" height="24" viewBox="0 0 24 24">
  <path id="Path_52" data-name="Path 52" d="M9.762,16.49c5.391,0,9.762,3.5,9.762,7.817,0,5.2-9.688,10.993-10.435,10.409-.642-.5,1.116-2.406-1.041-2.712C4.121,31.442,0,28.648,0,24.307,0,19.989,4.371,16.49,9.762,16.49ZM4.14,26.8H6.067a.531.531,0,0,0,0-1.061H4.65V22.515a.531.531,0,0,0-1.06,0v3.776A.511.511,0,0,0,4.14,26.8ZM16.3,24.433a.512.512,0,0,0-.509-.552H14.372v-.806h1.417a.531.531,0,0,0,0-1.061H13.863a.511.511,0,0,0-.551.509V26.3a.511.511,0,0,0,.509.509h1.969a.531.531,0,0,0,0-1.061H14.372v-.806h1.417a.51.51,0,0,0,.509-.509Zm-3.639,1.857V22.515a.531.531,0,0,0-1.061,0v2.217l-1.84-2.468a.536.536,0,0,0-.993.252v3.776a.531.531,0,0,0,1.06,0V24.033l1.854,2.531a.492.492,0,0,0,.429.236.51.51,0,0,0,.552-.509Zm-5.12.509a.51.51,0,0,0,.509-.509V22.515a.531.531,0,0,0-1.061,0v3.776A.512.512,0,0,0,7.539,26.8Z" transform="translate(2 -13.49)" fill="#fff"/>
  <rect id="Rectangle_8693" data-name="Rectangle 8693" width="24" height="24" fill="none"/>
</svg>
