<svg id="Component_10_3" data-name="Component 10 – 3" xmlns="http://www.w3.org/2000/svg" width="24" height="24" viewBox="0 0 24 24">
  <g id="Group_63" data-name="Group 63" transform="translate(5 5)">
    <path id="Path_50" data-name="Path 50" d="M14.032,10.19,12.094,8.253a1.289,1.289,0,0,0-2.145.484,1.319,1.319,0,0,1-1.522.83,5.975,5.975,0,0,1-3.6-3.6,1.254,1.254,0,0,1,.83-1.522A1.289,1.289,0,0,0,6.142,2.3L4.2.363a1.382,1.382,0,0,0-1.868,0L1.021,1.678c-1.315,1.384.138,5.052,3.391,8.3s6.92,4.775,8.3,3.391l1.315-1.315A1.382,1.382,0,0,0,14.032,10.19Z" transform="translate(-0.539 0)" fill="#fff"/>
  </g>
</svg>
