<svg xmlns="http://www.w3.org/2000/svg" xmlns:xlink="http://www.w3.org/1999/xlink" width="50.716" height="39.638" viewBox="0 0 50.716 39.638">
  <defs>
    <linearGradient id="linear-gradient" x1="0.5" x2="0.5" y2="1" gradientUnits="objectBoundingBox">
      <stop offset="0" stop-color="#a58f84"/>
      <stop offset="0.567" stop-color="#836d62"/>
      <stop offset="1" stop-color="#715f57"/>
    </linearGradient>
    <filter id="Path_19" x="16.164" y="3" width="34.552" height="36.638" filterUnits="userSpaceOnUse">
      <feOffset dy="3" input="SourceAlpha"/>
      <feGaussianBlur stdDeviation="3" result="blur"/>
      <feFlood flood-opacity="0.161"/>
      <feComposite operator="in" in2="blur"/>
      <feComposite in="SourceGraphic"/>
    </filter>
    <filter id="Path_20" x="0" y="3" width="34.552" height="36.638" filterUnits="userSpaceOnUse">
      <feOffset dy="3" input="SourceAlpha"/>
      <feGaussianBlur stdDeviation="3" result="blur-2"/>
      <feFlood flood-opacity="0.161"/>
      <feComposite operator="in" in2="blur-2"/>
      <feComposite in="SourceGraphic"/>
    </filter>
  </defs>
  <g id="Group_14543" data-name="Group 14543" transform="translate(-314 -826)">
    <g id="Group_37" data-name="Group 37" transform="translate(-646.315 160.706)" opacity="0.6">
      <g id="Group_22" data-name="Group 22" transform="translate(969.315 674.294)">
        <g transform="matrix(1, 0, 0, 1, -9, -9)" filter="url(#Path_19)">
          <path id="Path_19-2" data-name="Path 19" d="M2342.061,4198.273l-12.459-7.252a2.046,2.046,0,0,0-3.07,1.787v14.505a2.047,2.047,0,0,0,3.07,1.787l12.459-7.252A2.072,2.072,0,0,0,2342.061,4198.273Z" transform="translate(-2301.37 -4181.74)" fill="url(#linear-gradient)"/>
        </g>
        <g transform="matrix(1, 0, 0, 1, -9, -9)" filter="url(#Path_20)">
          <path id="Path_20-2" data-name="Path 20" d="M2027.439,4198.273l-12.459-7.252a2.047,2.047,0,0,0-3.07,1.787v14.505a2.047,2.047,0,0,0,3.07,1.787l12.459-7.252A2.072,2.072,0,0,0,2027.439,4198.273Z" transform="translate(-2002.91 -4181.74)" fill="url(#linear-gradient)"/>
        </g>
      </g>
    </g>
    <rect id="Rectangle_8940" data-name="Rectangle 8940" width="36" height="36" transform="translate(321 826)" fill="none"/>
  </g>
</svg>
