<svg xmlns="http://www.w3.org/2000/svg" xmlns:xlink="http://www.w3.org/1999/xlink" width="50.716" height="36.638" viewBox="0 0 50.716 36.638">
  <defs>
    <linearGradient id="linear-gradient" x1="0.5" x2="0.5" y2="1" gradientUnits="objectBoundingBox">
      <stop offset="0" stop-color="#a58f84"/>
      <stop offset="0.567" stop-color="#836d62"/>
      <stop offset="1" stop-color="#715f57"/>
    </linearGradient>
    <filter id="Path_17" x="0" y="0" width="34.552" height="36.638" filterUnits="userSpaceOnUse">
      <feOffset dy="3" input="SourceAlpha"/>
      <feGaussianBlur stdDeviation="3" result="blur"/>
      <feFlood flood-opacity="0.161"/>
      <feComposite operator="in" in2="blur"/>
      <feComposite in="SourceGraphic"/>
    </filter>
    <filter id="Path_18" x="16.164" y="0" width="34.552" height="36.638" filterUnits="userSpaceOnUse">
      <feOffset dy="3" input="SourceAlpha"/>
      <feGaussianBlur stdDeviation="3" result="blur-2"/>
      <feFlood flood-opacity="0.161"/>
      <feComposite operator="in" in2="blur-2"/>
      <feComposite in="SourceGraphic"/>
    </filter>
  </defs>
  <g id="Group_21" data-name="Group 21" transform="translate(9 6)" opacity="0.6">
    <g transform="matrix(1, 0, 0, 1, -9, -6)" filter="url(#Path_17)">
      <path id="Path_17-2" data-name="Path 17" d="M352.307,4201.847l12.46,7.252a2.046,2.046,0,0,0,3.069-1.787v-14.505a2.046,2.046,0,0,0-3.069-1.787l-12.46,7.253A2.071,2.071,0,0,0,352.307,4201.847Z" transform="translate(-342.28 -4184.74)" fill="url(#linear-gradient)"/>
    </g>
    <g transform="matrix(1, 0, 0, 1, -9, -6)" filter="url(#Path_18)">
      <path id="Path_18-2" data-name="Path 18" d="M666.929,4201.847l12.46,7.252a2.046,2.046,0,0,0,3.069-1.787v-14.505a2.046,2.046,0,0,0-3.069-1.787l-12.46,7.253A2.071,2.071,0,0,0,666.929,4201.847Z" transform="translate(-640.74 -4184.74)" fill="url(#linear-gradient)"/>
    </g>
  </g>
</svg>
