<svg xmlns="http://www.w3.org/2000/svg" width="9.142" height="9.142" viewBox="0 0 9.142 9.142">
  <g id="Group_11592" data-name="Group 11592" transform="translate(-1 -1)">
    <g id="Group_11591" data-name="Group 11591" transform="translate(1 1)">
      <path id="Path_6697" data-name="Path 6697" d="M6.6,9.142H1.525A1.524,1.524,0,0,1,0,7.619V2.54A1.524,1.524,0,0,1,1.525,1.016H3.556a.508.508,0,0,1,0,1.016H1.525a.508.508,0,0,0-.508.508V7.619a.508.508,0,0,0,.508.508H6.6a.508.508,0,0,0,.508-.508V5.587a.508.508,0,0,1,1.016,0V7.619A1.524,1.524,0,0,1,6.6,9.142ZM3.556,6.095A.508.508,0,0,1,3.2,5.228L7.409,1.016H5.588A.508.508,0,0,1,5.588,0H8.635A.506.506,0,0,1,8.99.145H9a.506.506,0,0,1,.144.355V3.555a.508.508,0,1,1-1.016,0V1.734L3.915,5.946a.506.506,0,0,1-.359.149Z" transform="translate(-0.001 0)" fill="#707070"/>
    </g>
  </g>
</svg>
