<svg xmlns="http://www.w3.org/2000/svg" width="36" height="36" viewBox="0 0 36 36">
  <g id="Group_14576" data-name="Group 14576" transform="translate(-308 -1695)">
    <rect id="Rectangle_8664" data-name="Rectangle 8664" width="36" height="36" rx="4" transform="translate(308 1695)" fill="#fff"/>
    <g id="Component_7_4" data-name="Component 7 – 4" transform="translate(308 1695)">
      <path id="Path_8160" data-name="Path 8160" d="M23.13-3.495a2.959,2.959,0,0,0-2.081-2.082c-1.848-.506-9.24-.506-9.24-.506s-7.392,0-9.24.486a3.019,3.019,0,0,0-2.081,2.1A31.175,31.175,0,0,0,0,2.186a31.06,31.06,0,0,0,.486,5.68A2.959,2.959,0,0,0,2.568,9.947c1.867.506,9.24.506,9.24.506s7.392,0,9.24-.486A2.959,2.959,0,0,0,23.13,7.885a31.185,31.185,0,0,0,.486-5.68A29.593,29.593,0,0,0,23.13-3.495ZM9.454,5.726V-1.355L15.6,2.186Zm0,0" transform="translate(6.463 16.23)" fill="#846e63"/>
      <rect id="Rectangle_8702" data-name="Rectangle 8702" width="36" height="36" rx="4" fill="none"/>
    </g>
  </g>
</svg>
